<svg xmlns="http://www.w3.org/2000/svg" version="1.1" viewBox="-5.0 -10.0 110.0 135.0">
 <path d="m50.148 55.695c-0.45313-0.51953-0.40234-1.3086 0.11719-1.7617 0.51562-0.45703 1.3086-0.40234 1.7617 0.11719 0.88281 1.0078 2.0742 1.5938 3.2695 1.6133 0.71484 0.027344 1.6758-0.16797 2.5117-1.0664 1.7891-1.9141 0.97266-4.1094 0.035156-5.0391-1.1641-1.1641-2.5508-1.5156-2.5625-1.5195-0.16406-0.039062-1.7188-0.43359-3.0703-1.7852-1.6602-1.6562-2.2344-4.6992-0.023438-7.0703 0.59766-0.64062 1.3555-1.0742 2.168-1.3164v-1.2852c0-0.69141 0.55859-1.25 1.25-1.25 0.69141 0 1.25 0.55859 1.25 1.25v1.1875c1.1992 0.25781 2.3242 0.91016 3.1875 1.8984 0.45312 0.51953 0.40234 1.3086-0.11719 1.7656-0.51953 0.45312-1.3086 0.40234-1.7617-0.11719-0.64453-0.73438-1.5078-1.1641-2.375-1.1797-0.48828 0.015625-1.1836 0.11719-1.7734 0.75391-1.2773 1.3672-0.69922 2.9297-0.035156 3.5938 0.85156 0.85156 1.8711 1.1172 1.8828 1.1211 0.082031 0.019531 2.0703 0.5 3.7539 2.1836 2 1.9961 2.6875 5.6602 0.023437 8.5156-0.76953 0.82422-1.7305 1.3672-2.7812 1.6445v1.2617c0 0.69141-0.55859 1.25-1.25 1.25s-1.25-0.55859-1.25-1.25v-1.1367c-1.5781-0.25391-3.0742-1.0859-4.207-2.3789zm43.777 10.23c-0.31641 1.8086-1.375 3.4258-2.9062 4.4375l-31.875 21.07c-3.1836 2.1016-6.8789 3.1797-10.598 3.1797-2.3672 0-4.7422-0.4375-7-1.3203l-18.559-7.3008v3.875c0 2.8281-2.3008 5.1328-5.1328 5.1328h-6.7539c-2.8281 0-5.1328-2.3008-5.1328-5.1328v-34.914c0-2.832 2.3008-5.1328 5.1328-5.1328h6.7539c2.8281 0 5.1328 2.3008 5.1328 5.1328v3.043h5.1875c-0.27344-2.3867-0.21875-4.9531 0.21094-7.7148 1.5859-10.305 7.875-19.762 15.508-24.848-0.73438-0.83203-1.1914-1.9102-1.1914-3.1055 0-1.5703 0.78125-2.957 1.9648-3.8164-0.5-1.0039-0.96094-2.0312-1.3164-3.0938-0.74609-2.2773-1.1523-4.668-1.2109-7.0859-0.015625-0.98438 0.54688-1.8711 1.4492-2.25 0.89844-0.39453 1.9414-0.19531 2.6445 0.47656 0.37891 0.37891 0.60547 0.51953 1.0391 0.51953 0.49219 0 0.6875-0.16797 1.1953-0.67578 0.58984-0.58984 1.4062-1.4062 2.9688-1.4062 1.5469 0 2.3633 0.81641 2.9531 1.4062 0.50781 0.50781 0.70312 0.67578 1.1953 0.67578 0.50781 0 0.70312-0.16797 1.1953-0.67578 0.60547-0.58984 1.4062-1.4062 2.9688-1.4062s2.375 0.81641 2.9688 1.4062c0.50781 0.50781 0.70312 0.67578 1.1953 0.67578 0.46484 0 0.67578-0.16797 1.082-0.5625 0.70312-0.67578 1.7305-0.85938 2.6289-0.47656 0.89844 0.39453 1.4609 1.2812 1.4492 2.25-0.042969 2.4336-0.44922 4.8242-1.2227 7.1289-0.34375 1.0469-0.78906 2.0547-1.2812 3.043 1.2227 0.85547 2.0273 2.2656 2.0273 3.8672 0 1.1953-0.46094 2.2773-1.1953 3.1094 7.6406 5.0859 13.926 14.539 15.512 24.844 0.25391 1.6719 0.39453 3.2891 0.39453 4.8359 0 1.6211-0.15625 3.1562-0.43359 4.6172l0.54297-0.35938c3.043-2.0469 7.2188-1.4062 9.2969 1.4219 1.1094 1.4844 1.5391 3.3047 1.2227 5.125zm-30.055-41.375c1.2227 0 2.2188-0.99609 2.2188-2.2188 0-1.2227-0.99609-2.2227-2.2188-2.2227h-16.449c-1.2227 0-2.2188 0.99609-2.2188 2.2227 0 1.2227 0.99609 2.2188 2.2188 2.2188zm-16.84-6.9023c0.12891-0.011719 0.25391-0.039063 0.39062-0.039063h16.449c0.10156 0 0.19922 0.023437 0.30078 0.03125 0.50781-0.97266 0.96484-1.9688 1.3125-3.0078 0.67578-2.0664 1.0547-4.2031 1.082-6.3828-0.29688 0.50781-1.1406 1.3359-2.6562 1.3359-1.5625 0-2.375-0.81641-2.9688-1.4062-0.49219-0.50781-0.6875-0.67578-1.1953-0.67578-0.49219 0-0.6875 0.16797-1.1953 0.67578-0.58984 0.58984-1.4062 1.4062-2.9688 1.4062-1.5469 0-2.3633-0.81641-2.9531-1.4062-0.50781-0.50781-0.70312-0.67578-1.1953-0.67578-0.50781 0-0.70312 0.16797-1.2109 0.67578-0.58984 0.58984-1.4062 1.4062-2.9531 1.4062-1.3516 0-2.1641-0.61719-2.7852-1.2383 0.19531 2.1094 0.5625 4.2461 1.2383 6.2852 0.34766 1.0508 0.80469 2.043 1.3086 3.0156zm-16.332 40.348h1.4531c2.5938 0 5.1289 0.47266 7.5391 1.4023l5.1875 2.043h5.8984c0.046875 0 0.089844 0.003906 0.13672 0.007813h14.195c3.3359 0 6.1094 2.457 6.6055 5.6562l7.9648-5.2656c1.1406-3.1992 1.4023-6.9375 0.75-11.18-1.0977-7.1016-4.543-13.766-9.0859-18.66-1.9219-2.0625-4.0391-3.8047-6.2539-5.1289-0.39453 0.10547-0.79688 0.17969-1.2227 0.17969h-16.449c-0.42578 0-0.82812-0.074219-1.2188-0.17969-7.4805 4.4844-13.789 13.684-15.34 23.789-0.41406 2.6523-0.44922 5.0898-0.16406 7.3359zm-10.211 31.871v-5.7031-0.007812-24.91-0.007813-4.2852c0-1.4531-1.1797-2.6328-2.6328-2.6328h-6.7539c-1.4531 0-2.6328 1.1836-2.6328 2.6328v34.914c0 1.4492 1.1797 2.6328 2.6328 2.6328h6.7539c1.4531 0 2.6328-1.1836 2.6328-2.6328zm70.211-27.578c-0.003907-0.003906-0.003907-0.003906-0.007813-0.007812-1.293-1.7656-3.9414-2.1328-5.8984-0.82422l-13.391 8.8555c-0.90625 2.6133-3.3711 4.5078-6.3008 4.5078h-20.461c-0.6875 0-1.25-0.54687-1.25-1.25 0-0.6875 0.5625-1.25 1.25-1.25h20.461c1.957 0 3.5781-1.3359 4.043-3.1328 0-0.007812 0.14844-0.48828 0.14844-1.043 0-2.3086-1.8789-4.1875-4.1836-4.1875h-14.309c-0.046875 0-0.089843-0.003906-0.13672-0.007812h-6.0234c-0.15625 0-0.3125-0.03125-0.45703-0.085938l-5.4023-2.125c-2.1172-0.81641-4.3477-1.2344-6.6289-1.2344h-9.1641v22.809l19.473 7.6602c5.0469 1.9766 10.77 1.3711 15.305-1.6172l31.875-21.07c0.97656-0.64453 1.625-1.6328 1.8242-2.7812 0.19922-1.1367-0.074219-2.2734-0.76562-3.2031zm-71.855 21.734c0 2.4062-1.957 4.3633-4.3633 4.3633s-4.3633-1.957-4.3633-4.3633 1.957-4.3594 4.3633-4.3594 4.3633 1.957 4.3633 4.3594zm-2.5 0c0-1.0273-0.83594-1.8594-1.8633-1.8594-1.0273 0-1.8633 0.83594-1.8633 1.8594 0 1.0273 0.83594 1.8633 1.8633 1.8633 1.0273 0 1.8633-0.83594 1.8633-1.8633z"/>
<text x="0.0" y="117.5" font-size="5.0" font-weight="bold" font-family="Arbeit Regular, Helvetica, Arial-Unicode, Arial, Sans-serif" fill="#000000">Created by MihiMihi</text><text x="0.0" y="122.5" font-size="5.0" font-weight="bold" font-family="Arbeit Regular, Helvetica, Arial-Unicode, Arial, Sans-serif" fill="#000000">from Noun Project</text></svg>