<svg xmlns="http://www.w3.org/2000/svg" version="1.1" viewBox="-5.0 -10.0 110.0 135.0">
 <path d="m17.969 17.188h63.984v3.125h-63.984z"/>
 <path d="m87.891 8.6719c-1.6016 0.16016-2.8203 1.5156-2.8125 3.125v57.266c0.011719 0.86328 0.37891 1.6836 1.0156 2.2656 0.63672 0.57812 1.4883 0.86328 2.3438 0.78125 6.6406-0.46875 8.125 4.8438 8.4375 7.3438-0.15625 1.0156-1.25 7.1875-7.8906 7.1875h-77.656c-6.875 0.3125-8.0469-6.0938-8.2031-7.1875 0.3125-2.5 1.875-7.8125 8.4375-7.3438 0.85547 0.074219 1.7031-0.21094 2.3438-0.78125 0.63672-0.58203 1.0039-1.4023 1.0156-2.2656v-57.266c0.007813-1.6094-1.2109-2.9648-2.8125-3.125-6.6406-0.70312-11.328 3.0469-12.109 9.6875v61.172c0.0078125 0.13281 0.035156 0.26562 0.078125 0.39062 0.33594 2.4883 1.3945 4.8281 3.0469 6.7188 1.9805 2.1094 4.7656 3.2734 7.6562 3.2031h78.125c3.0586 0.09375 6-1.1641 8.0469-3.4375 1.5977-1.8594 2.6289-4.1367 2.9688-6.5625 0.011719-0.10547 0.011719-0.20703 0-0.3125v-61.172c-0.70312-6.6406-5.3906-10.391-12.031-9.6875zm-84.766 63.438v-53.516c0.625-4.8438 3.75-7.3438 8.5938-6.7969v57.266c-3.1797-0.35156-6.3438 0.77344-8.5938 3.0469zm93.75 0c-1.9922-2.082-4.7773-3.2148-7.6562-3.125h-1.0156v-57.188c4.8438-0.46875 8.0469 1.9531 8.6719 6.875z"/>
 <path d="m76.953 54.453c0.53516-0.67188 0.42969-1.6445-0.23438-2.1875l-24.688-20.391c-1.0117-0.82031-2.4648-0.78516-3.4375 0.078125l-8.5938 7.6562v-2.5781c0-0.70312-0.28125-1.3789-0.77734-1.8789-0.5-0.49609-1.1758-0.77734-1.8789-0.77734h-4.2969c-0.70312 0-1.3789 0.28125-1.875 0.78125-0.50781 0.49219-0.78906 1.168-0.78125 1.875v10.078l-7.1875 6.4062c-0.64844 0.58203-0.69922 1.5781-0.11719 2.2266 0.58203 0.64844 1.5781 0.69922 2.2266 0.11719l7.7344-6.875c0.34375-0.29297 0.54297-0.71875 0.54688-1.1719v-10.234h3.3594v5.5469c0.007813 0.60547 0.36328 1.1562 0.91406 1.4062 0.55469 0.25391 1.2031 0.16016 1.6641-0.23438l10.938-9.6875 24.297 20.078c0.67188 0.53516 1.6445 0.42969 2.1875-0.23438z"/>
 <path d="m54.688 73.438c0.49219 0.50781 1.168 0.78906 1.875 0.78125h11.875c0.70312 0 1.3789-0.28125 1.8789-0.77734 0.49609-0.5 0.77734-1.1758 0.77734-1.8789v-13.672c0-0.78125-0.33984-1.5234-0.9375-2.0312l-17.734-15.391c-0.99219-0.83984-2.4453-0.83984-3.4375 0l-17.578 15.391c-0.57422 0.48828-0.91797 1.1992-0.9375 1.9531v13.75c0 0.70312 0.28125 1.3789 0.77734 1.8789 0.5 0.49609 1.1758 0.77734 1.8789 0.77734h11.172c1.4375-0.042969 2.5781-1.2188 2.5781-2.6562v-9.0625h7.0312v9.0625c0 0.70312 0.28125 1.3789 0.78125 1.875zm-8.2812-14.062c-0.70312 0-1.3789 0.28125-1.8789 0.77734-0.49609 0.5-0.77734 1.1758-0.77734 1.8789v9.0625h-10.156v-13.047l17.109-14.922 17.266 14.922v13.047h-10.859v-9.0625c-0.085937-1.5234-1.3672-2.6992-2.8906-2.6562z"/>
<text x="0.0" y="117.5" font-size="5.0" font-weight="bold" font-family="Arbeit Regular, Helvetica, Arial-Unicode, Arial, Sans-serif" fill="#000000">Created by Creative Mahira</text><text x="0.0" y="122.5" font-size="5.0" font-weight="bold" font-family="Arbeit Regular, Helvetica, Arial-Unicode, Arial, Sans-serif" fill="#000000">from Noun Project</text></svg>