<svg xmlns="http://www.w3.org/2000/svg" version="1.1" viewBox="-5.0 -10.0 110.0 135.0">
 <path d="m93.766 18.039-5.7109-5.7109c-1.6172-1.6016-4.4141-1.6016-6.0195 0l-2.582 2.582c-0.4375-0.14453-0.89062-0.23438-1.3438-0.23438-1.082 0-2.1797 0.40625-3.0078 1.2383l-20.91 20.91c-0.54688 0.54688-1.0391 1.168-1.4766 1.8281 0 0-0.10156 0.17188-0.15234 0.25391-0.4375 0.70312-0.79297 1.4766-1.0547 2.293l-3.4414 10.59c-0.085937 0.035157-0.17578 0.054688-0.25781 0.09375-0.30469 0.14063-0.60547 0.29297-0.91016 0.44141-0.33203-3.0352-2.8867-5.4219-6.0078-5.4219l-29.816 0.007812c-3.3477 0-6.0742 2.7266-6.0742 6.0742v29.812c0 3.3477 2.7266 6.0742 6.0742 6.0742h29.812c3.3477 0 6.0742-2.7266 6.0742-6.0742v-18.203c1.7656-1.2383 3.5391-2.3086 5.2461-3.0859 1.2812-0.58984 2.2656-1.6445 2.7578-2.9688 0.097656-0.26172 0.15234-0.53125 0.20703-0.79687l9.7148-3.1562c0.80469-0.26172 1.5742-0.60938 2.2891-1.0391 0.089844-0.054687 0.26562-0.16406 0.26562-0.16406 0.66016-0.4375 1.2812-0.92969 1.8281-1.4766l5.4844-5.4844c0.18359 0.39844 0.42578 0.78125 0.75781 1.1094 0.74609 0.74609 1.7227 1.1172 2.6992 1.1172 0.98047 0 1.957-0.37109 2.7031-1.1172l9.2656-9.2656c2.2305-2.2305 2.4453-5.707 0.68359-8.1992 0.59375-1.0547 0.70312-2.3008 0.32812-3.4258l2.5781-2.5781c1.6445-1.6602 1.6445-4.3594 0-6.0195zm-49.305 64.758c0 1.9688-1.6016 3.5703-3.5703 3.5703l-29.816 0.003906c-1.9688 0-3.5703-1.6016-3.5703-3.5703v-29.812c0-1.9688 1.6016-3.5703 3.5703-3.5703h29.812c1.9688 0 3.5703 1.6016 3.5703 3.5703v0.66406c-6.2422 3.6641-12.191 9.2617-16.059 13.766-2.7969-3.3477-6.0742-6.0312-9.3516-7.6367-1.2656-0.61719-2.6992-0.70312-4.0352-0.23828-1.3359 0.46484-2.418 1.4219-3.0234 2.6875-0.61719 1.2656-0.70312 2.6992-0.25391 4.0352 0.46484 1.3359 1.4219 2.4062 2.6875 3.0234 3.25 1.5742 7.1562 5.793 8.8867 9.6055 0.82812 1.8008 2.5586 2.9805 4.5547 3.0938h0.25391c1.8711 0 3.6133-1 4.5547-2.6016 2.2891-3.8906 6.8359-8.9414 11.785-12.902v16.32zm-13.938-4.6797c-0.50781 0.84375-1.4219 1.3633-2.4062 1.3633h-0.14063c-1.0391-0.054688-1.9531-0.67578-2.3906-1.6328-1.9844-4.332-6.3125-8.9844-10.07-10.816-0.67578-0.32422-1.168-0.88672-1.4219-1.5898-0.23828-0.70312-0.19531-1.4609 0.125-2.125 0.33594-0.67578 0.89844-1.1797 1.6016-1.4219 0.29688-0.097656 0.60547-0.15625 0.91406-0.15625 0.40625 0 0.82812 0.097657 1.2109 0.28125 3.332 1.6172 6.6797 4.5 9.4219 8.1289 0.23828 0.30859 0.58984 0.47656 0.96875 0.49219 0.39453-0.015625 0.75781-0.16797 1-0.46484 5.1289-6.293 11.969-12.059 17.891-15.184-0.003906 1.0117 0.375 2 1.1172 2.7422 0.73828 0.73828 1.7188 1.1328 2.7227 1.1328 0.25 0 0.50391-0.035157 0.75391-0.085938-0.19922 0.17188-0.41406 0.32422-0.66016 0.4375-7.8047 3.5703-16.973 12.645-20.645 18.887zm33.59-25.91-12.602 4.0938c-0.5 0.16797-1.0234 0.042969-1.3906-0.32812-0.37109-0.37109-0.49609-0.89062-0.33203-1.3984l4.0977-12.602c0.03125-0.09375 0.0625-0.1875 0.09375-0.27734l10.414 10.414c-0.09375 0.03125-0.1875 0.066406-0.28516 0.097656zm3.3828-2.0781c-0.25781 0.25781-0.53516 0.49609-0.82422 0.71875l-11.426-11.43c0.22266-0.28516 0.46094-0.5625 0.71875-0.82031l20.91-20.91c0.67578-0.6875 1.7852-0.6875 2.4766 0l9.0547 9.0547c0.6875 0.6875 0.6875 1.8008 0 2.4766l-20.91 20.91zm20.914-13.637-9.2656 9.2656c-0.51172 0.51953-1.3555 0.51172-1.8672 0-0.51562-0.51562-0.51562-1.3477-0.003906-1.8633l11.875-11.875c0.71484 1.4531 0.47266 3.2656-0.73828 4.4727zm3.582-14.207-2.25 2.25-8.1836-8.1836 2.25-2.25c0.33594-0.32422 0.78906-0.49219 1.2383-0.49219s0.89844 0.16797 1.2383 0.49219l5.7109 5.7109c0.6875 0.6875 0.6875 1.8008 0 2.4766z"/>
<text x="0.0" y="117.5" font-size="5.0" font-weight="bold" font-family="Arbeit Regular, Helvetica, Arial-Unicode, Arial, Sans-serif" fill="#000000">Created by MihiMihi</text><text x="0.0" y="122.5" font-size="5.0" font-weight="bold" font-family="Arbeit Regular, Helvetica, Arial-Unicode, Arial, Sans-serif" fill="#000000">from Noun Project</text></svg>