<svg xmlns="http://www.w3.org/2000/svg" version="1.1" viewBox="-5.0 -10.0 110.0 135.0">
 <path d="m94.934 58.629c-0.17578-1.8203-1.6836-3.2578-3.5234-3.4648l-10.082-22.867c2.1836-0.50391 4.3438-1.2812 6.5273-2.4219 2.2656-1.1797 3.1367-3.9922 1.9531-6.2578-1.1953-2.2773-4.0234-3.1367-6.2734-1.9531-7.0312 3.6719-12.402 1.6328-19.211-0.96875-2.6641-1.0117-5.5469-2.0859-8.6602-2.7852-0.16797-0.16016-0.33984-0.31641-0.51953-0.46094v-3.5742c0-2.8398-2.3047-5.1484-5.1484-5.1484-2.8398 0-5.1602 2.3047-5.1602 5.1484v3.5781c-0.17969 0.14453-0.34766 0.29688-0.51172 0.45703-3.1055 0.69922-6.0039 1.7852-8.668 2.8008-6.8047 2.5859-12.18 4.625-19.195 0.95703-2.2656-1.1797-5.0781-0.30859-6.2734 1.9531-1.1797 2.2656-0.30859 5.0781 1.9531 6.2734 2.1836 1.1328 4.3438 1.9062 6.5273 2.4102l-10.074 22.867c-1.8477 0.20703-3.3633 1.6641-3.543 3.6016v0.019531c-0.34375 4.0586 1.1016 8.2305 3.9609 11.438 2.8711 3.2188 6.8672 5.1289 10.957 5.2461 0.15234 0.003907 0.30078 0.003907 0.45312 0.003907 4.0469 0 7.8555-1.5391 10.766-4.3711 3.0156-2.9297 4.6719-6.8516 4.6719-11.051 0-0.47656-0.023437-0.94922-0.066406-1.4219-0.17188-1.8242-1.6914-3.2656-3.5352-3.4688l-9.7969-22.266c0.035156 0.003906 0.070312 0.011718 0.10547 0.011718 0.49219 0.027344 0.96875 0.042969 1.4492 0.042969 5.5391 0 10.477-1.8711 14.977-3.5703 1.3281-0.50391 2.6289-0.98047 3.9219-1.4102 0.50391 0.85938 1.1562 1.625 1.9258 2.2461v43.57h-3.3789c-4.1484 0-7.5234 3.3555-7.5703 7.4961h-8.0586c-2.3047 0-4.1797 1.875-4.1797 4.1797v1.6328c0 2.3047 1.875 4.1797 4.1797 4.1797h48.324c2.3086 0 4.1836-1.875 4.1836-4.1797v-1.6328c0-2.3047-1.875-4.1797-4.1836-4.1797h-8.0586c-0.046875-4.1406-3.418-7.4961-7.5703-7.4961h-3.3828l0.003907-43.57c0.77344-0.625 1.4297-1.3906 1.9336-2.2539 1.3281 0.44141 2.6719 0.9375 4.0547 1.4688 4.3867 1.6602 9.3086 3.5156 14.852 3.5156 0.47656 0 0.96875-0.015625 1.4492-0.042969 0.035156-0.003906 0.070312-0.011718 0.10547-0.011718l-9.7969 22.266c-1.8477 0.20313-3.3711 1.6484-3.5352 3.4531-0.003907 0.019531-0.011719 0.11328-0.015626 0.16797-0.34375 4.0586 1.0977 8.2305 3.9609 11.438 2.8711 3.2188 6.8672 5.1289 10.961 5.2461 0.14844 0.003906 0.30078 0.003906 0.45312 0.003906 4.0469 0 7.8555-1.5391 10.766-4.3711 3.0117-2.9297 4.6719-6.8516 4.6719-11.051 0-0.47656-0.023437-0.94531-0.066406-1.4219zm-74.508-24.129 9.0859 20.621h-18.168l9.0859-20.621zm12.934 25.551c0 3.5156-1.3906 6.8047-3.9141 9.2578-2.5312 2.4609-5.875 3.8164-9.4062 3.6562-3.4062-0.09375-6.75-1.7031-9.1641-4.4102-2.4062-2.6953-3.625-6.1797-3.3359-9.5625l0.011719-0.11328c0.066407-0.70703 0.72266-1.2578 1.4922-1.2578h22.773c0.76953 0 1.4219 0.54688 1.4883 1.2461 0.039062 0.39062 0.054687 0.78516 0.054687 1.1836zm13.984-46.18c0-1.4609 1.1953-2.6562 2.6562-2.6562s2.6445 1.1953 2.6445 2.6562v2.1953c-0.83203-0.28516-1.7188-0.44531-2.6484-0.44531-0.92969 0-1.8203 0.16406-2.6523 0.44922zm-9.3672 13.219c-4.7383 1.8008-9.6602 3.6719-15.258 3.3203-3.1797-0.21094-6.2734-1.0977-9.4062-2.7422-1.0547-0.54688-1.4492-1.8438-0.89844-2.8828 0.37891-0.73047 1.125-1.1523 1.8984-1.1523 0.33594 0 0.67578 0.070313 0.98438 0.23828 8.0156 4.1914 14.441 1.7578 21.262-0.84375 1.8711-0.70312 3.7734-1.4141 5.7344-2.0078-0.32422 0.87891-0.50781 1.8242-0.50781 2.8164 0 0.61719 0.074219 1.2188 0.20312 1.8008-1.3438 0.45703-2.6836 0.94531-4.0117 1.457zm37.863 58.375v1.6328c0 0.92578-0.75391 1.6797-1.6836 1.6797h-48.324c-0.92578 0-1.6797-0.75391-1.6797-1.6797v-1.6328c0-0.92578 0.75391-1.6797 1.6797-1.6797h48.324c0.92578 0 1.6836 0.75391 1.6836 1.6797zm-12.23-4.1797h-27.223c0.042969-2.7617 2.3047-4.9961 5.0742-4.9961h17.07c2.7734 0 5.0352 2.2344 5.0781 4.9961zm-10.965-7.4961h-5.3008v-42.191c0.83203 0.28516 1.7227 0.44922 2.6523 0.44922 0.92578 0 1.8164-0.16016 2.6484-0.44531zm-2.6484-44.242c-3.1523 0-5.7148-2.5625-5.7148-5.7148 0-3.1523 2.5625-5.7148 5.7148-5.7148s5.7148 2.5625 5.7148 5.7148c0 3.1523-2.5625 5.7148-5.7148 5.7148zm27.285 0.85938c-5.625 0.33594-10.52-1.5195-15.371-3.3594-1.2891-0.48828-2.5898-0.96484-3.9062-1.4141 0.12891-0.58203 0.20312-1.1797 0.20312-1.8008 0-0.99219-0.1875-1.9414-0.51172-2.8242 1.9688 0.59766 3.875 1.3164 5.7578 2.0273 6.8047 2.5859 13.219 5.0352 21.25 0.82812 1.0391-0.54688 2.3359-0.14062 2.8828 0.91406 0.54687 1.0391 0.15625 2.3359-0.88672 2.8828-3.1484 1.6445-6.2422 2.5312-9.4219 2.7422zm11.375 24.715h-18.168l9.0859-20.621 9.0859 20.621zm-0.074219 14.188c-2.5312 2.4609-5.875 3.8164-9.4062 3.6562-3.4062-0.09375-6.75-1.7031-9.1641-4.4102-2.4062-2.6953-3.625-6.1797-3.3359-9.5625l0.011719-0.11328c0.066406-0.70703 0.71875-1.2578 1.4922-1.2578h22.773c0.76562 0 1.4219 0.54688 1.4883 1.2422 0.035156 0.39453 0.054688 0.78906 0.054688 1.1875 0 3.5156-1.3906 6.8047-3.918 9.2578z"/>
<text x="0.0" y="117.5" font-size="5.0" font-weight="bold" font-family="Arbeit Regular, Helvetica, Arial-Unicode, Arial, Sans-serif" fill="#000000">Created by MihiMihi</text><text x="0.0" y="122.5" font-size="5.0" font-weight="bold" font-family="Arbeit Regular, Helvetica, Arial-Unicode, Arial, Sans-serif" fill="#000000">from Noun Project</text></svg>