<svg xmlns="http://www.w3.org/2000/svg" xmlns:xlink="http://www.w3.org/1999/xlink" xml:space="preserve" style="shape-rendering:geometricPrecision;text-rendering:geometricPrecision;image-rendering:optimizeQuality;" viewBox="0 0 173.397 216.74624999999997" x="0px" y="0px" fill-rule="evenodd" clip-rule="evenodd"><defs><style type="text/css">
   
    .fil1 {fill:none}
    .fil0 {fill:black}
   
  </style></defs><g><g><path class="fil0" d="M13.9658 145.878c-0.2512,0 -0.4637,0.2125 -0.4637,0.4633l0 5.9217c0,0.2506 0.2124,0.463 0.4637,0.463l145.466 -0.0001c0.2506,0 0.4629,-0.2123 0.4629,-0.4629l0 -5.9218c0,-0.2509 -0.2124,-0.4631 -0.4631,-0.4631l-145.466 -0.0001zm145.466 10.1901l-145.466 0c-2.0984,0 -3.8058,-1.7059 -3.8058,-3.8051l0 -5.9218c0,-2.0992 1.7072,-3.8051 3.8058,-3.8051l145.466 -0.0002c2.0956,0 3.8049,1.7061 3.8049,3.8054l0.0001 5.9217c0,2.099 -1.7094,3.8051 -3.805,3.8051z"/><path class="fil0" d="M134.525 46.5272c0.1688,0 0.3379,0.0279 0.5009,0.0801l8.4172 2.6458 0.0843 -8.8253c0.003,-0.3411 0.1113,-0.6717 0.3095,-0.9502l5.1184 -7.1891 -8.3655 -2.806c-0.3241,-0.1079 -0.6071,-0.3132 -0.8108,-0.5883l-5.254 -7.0881 -5.2538 7.0879c-0.2037,0.2752 -0.4871,0.4806 -0.8112,0.5886l-8.3652 2.8059 5.1179 7.189c0.1984,0.2785 0.3066,0.6093 0.3098,0.9505l0.0844 8.8251 8.4168 -2.6458c0.1633,-0.0523 0.3324,-0.08 0.5013,-0.0801zm10.5676 6.6667c-0.168,0 -0.3371,-0.0242 -0.5014,-0.0764l-10.0662 -3.1647 -10.0666 3.1646c-0.5057,0.1566 -1.0554,0.0698 -1.4835,-0.2436 -0.4281,-0.3098 -0.6838,-0.8042 -0.6887,-1.3368l-0.1006 -10.552 -6.1209 -8.5957c-0.3071,-0.428 -0.3917,-0.9815 -0.2281,-1.4828 0.1635,-0.505 0.5556,-0.9017 1.0576,-1.0689l10.0049 -3.3561 6.2831 -8.477c0.3155,-0.4282 0.8132,-0.6753 1.3427,-0.6753 0.5293,-0.0001 1.0273,0.2472 1.3424,0.6753l6.2839 8.477 10.005 3.356c0.5013,0.1673 0.8947,0.5641 1.0583,1.069 0.1637,0.5012 0.0767,1.0548 -0.2297,1.483l-6.1206 8.5955 -0.1005 10.5519c-0.0048,0.5326 -0.2605,1.0271 -0.6887,1.3369 -0.2888,0.2087 -0.6336,0.3203 -0.9824,0.3201z"/><path class="fil0" d="M150.468 145.878c-0.9235,0 -1.6718,-0.7484 -1.6718,-1.6709l0 -68.4922c0,-1.9077 -1.5513,-3.4604 -3.4584,-3.4604l-21.6257 0c-1.9067,0 -3.4585,1.5527 -3.4585,3.4605l0.0002 68.492c0,0.9226 -0.7483,1.6711 -1.6712,1.6711 -0.9225,-0.0001 -1.6711,-0.7485 -1.6711,-1.671l0.0001 -68.4922c0,-3.7494 3.0506,-6.8025 6.8004,-6.8025l21.6259 -0.0001c3.7497,0 6.8011,3.0533 6.8011,6.8027l0 68.492c0,0.9226 -0.7485,1.6711 -1.671,1.671z"/><path class="fil0" d="M86.6982 145.878c-0.9227,0 -1.671,-0.7484 -1.671,-1.6709l0 -49.7278c0,-2.9452 2.3945,-5.3367 5.3375,-5.3367l28.2175 -0.0001c0.9229,0 1.671,0.7451 1.671,1.6711 0.0002,0.9224 -0.7481,1.671 -1.671,1.671l-28.2174 -0.0002c-1.1003,0 -1.9956,0.8949 -1.9956,1.995l0.0002 49.7276c0,0.9226 -0.7486,1.6711 -1.6712,1.671z"/><path class="fil0" d="M54.8136 145.878c-0.9229,0 -1.6711,-0.7484 -1.6711,-1.6709l0.0001 -36.0216c0,-2.9313 2.3822,-5.3125 5.3104,-5.3125l28.2452 -0.0001c0.9227,0 1.6707,0.7485 1.6707,1.6711 0.0001,0.9226 -0.7481,1.6711 -1.6707,1.6711l-28.2451 -0.0001c-1.0852,0 -1.9685,0.8844 -1.9685,1.9706l0 36.0214c0,0.9226 -0.7481,1.6711 -1.671,1.671z"/><path class="fil0" d="M22.9294 145.878c-0.9229,0 -1.6712,-0.7484 -1.6712,-1.6709l0 -27.2486c0,-2.9836 2.4275,-5.4134 5.4114,-5.4134l28.144 0c0.9225,0 1.6706,0.7485 1.6706,1.671 0.0002,0.9225 -0.7481,1.6711 -1.6706,1.6711l-28.1439 -0.0002c-1.1411,0 -2.0698,0.9297 -2.0698,2.0716l0.0001 27.2484c0,0.9226 -0.7478,1.6711 -1.6706,1.671z"/><path class="fil0" d="M39.3717 101.282c0.1689,0 0.338,0.0245 0.5012,0.0767l5.2076 1.6396 0.0519 -5.4587c0.003,-0.3446 0.1112,-0.6754 0.3097,-0.9538l3.1659 -4.4459 -5.1747 -1.7371c-0.3244,-0.108 -0.6075,-0.3132 -0.8107,-0.5883l-3.2509 -4.3866 -3.2501 4.3866c-0.2036,0.275 -0.4869,0.4804 -0.8109,0.5884l-5.1753 1.737 3.1664 4.4459c0.1983,0.2784 0.3061,0.6092 0.3096,0.9538l0.052 5.4587 5.207 -1.6397c0.1633,-0.0522 0.3321,-0.0765 0.5013,-0.0766zm7.3578 5.6573c-0.168,0 -0.337,-0.0277 -0.5013,-0.0766l-6.8565 -2.1586 -6.8565 2.1586c-0.5055,0.1565 -1.0556,0.0661 -1.4835,-0.2436 -0.4281,-0.31 -0.6838,-0.8078 -0.6886,-1.3369l-0.0689 -7.1856 -4.1689 -5.8556c-0.3071,-0.4318 -0.3917,-0.9817 -0.228,-1.4865 0.1636,-0.5014 0.5559,-0.8982 1.0576,-1.0687l6.8145 -2.2839 4.2799 -5.7757c0.3151,-0.4245 0.8132,-0.6752 1.3423,-0.6752 0.5296,0 1.0274,0.2507 1.3425,0.6754l4.2804 5.7755 6.8144 2.2838c0.5017,0.1705 0.8939,0.5675 1.0576,1.0688 0.1637,0.5048 0.0789,1.0548 -0.2281,1.4866l-4.1692 5.8555 -0.0685 7.1854c-0.0049,0.5293 -0.2605,1.0273 -0.6888,1.3371 -0.2888,0.2088 -0.6336,0.3202 -0.9824,0.3202z"/><path class="fil0" d="M60.5011 71.8923l3.5488 4.9855c0.1986,0.2783 0.3067,0.6091 0.3099,0.9538l0.0585 6.1167 5.8362 -1.8348c0.3264,-0.1044 0.676,-0.1043 1.0025,0.0002l5.8365 1.8346 0.0582 -6.1167c0.0031,-0.3447 0.1113,-0.6754 0.3098,-0.9538l3.5486 -4.9855 -5.8002 -1.946c-0.3241,-0.108 -0.6077,-0.3132 -0.8113,-0.5883l-3.6428 -4.9158 -3.6429 4.9158c-0.2037,0.275 -0.4871,0.4804 -0.8112,0.5884l-5.8006 1.9459zm2.2677 15.9969c-0.3487,0 -0.6935,-0.1078 -0.9825,-0.3168 -0.428,-0.3134 -0.6834,-0.8076 -0.6886,-1.3368l-0.0746 -7.8471 -4.552 -6.3917c-0.3071,-0.4316 -0.3917,-0.9851 -0.2281,-1.4864 0.1636,-0.505 0.5559,-0.9017 1.0576,-1.0689l7.44 -2.4961 4.6728 -6.3048c0.3151,-0.4247 0.8132,-0.6753 1.3423,-0.6753 0.5296,-0.0001 1.0273,0.2506 1.3424,0.6754l4.6727 6.3047 7.4397 2.496c0.502,0.1673 0.8943,0.5641 1.058,1.069 0.1637,0.5012 0.0789,1.0548 -0.2281,1.4865l-4.5515 6.3916 -0.0748 7.847c-0.0052,0.5291 -0.2608,1.0236 -0.689,1.3369 -0.4277,0.3098 -0.978,0.4004 -1.4834,0.2402l-7.4859 -2.3534 -7.4857 2.3534c-0.1643,0.0521 -0.3331,0.0766 -0.5013,0.0766z"/><path class="fil0" d="M91.4197 51.2758l3.9117 5.4935c0.1983,0.2785 0.3066,0.6128 0.3098,0.9541l0.0644 6.7433 6.4335 -2.0228c0.3262,-0.1043 0.6761,-0.1043 1.0022,0.0001l6.4333 2.0227 0.0645 -6.7435c0.0034,-0.3412 0.1112,-0.6752 0.3097,-0.9538l3.9121 -5.4936 -6.3939 -2.1444c-0.3241,-0.108 -0.6073,-0.3134 -0.8108,-0.5884l-4.0162 -5.4206 -4.0156 5.4205c-0.2036,0.2751 -0.4868,0.4805 -0.8109,0.5885l-6.3938 2.1444zm2.6369 17.1317c-0.349,0 -0.6937,-0.1078 -0.9826,-0.3167 -0.4282,-0.3135 -0.6838,-0.8077 -0.689,-1.3368l-0.0807 -8.4736 -4.915 -6.9038c-0.3067,-0.428 -0.3917,-0.9815 -0.2277,-1.4828 0.1632,-0.505 0.5556,-0.9017 1.0576,-1.0688l8.033 -2.6947 5.0454 -6.8095c0.3155,-0.4247 0.8133,-0.6753 1.3424,-0.6753 0.5296,-0.0001 1.0274,0.2507 1.3428,0.6754l5.0456 6.8094 8.0328 2.6946c0.5021,0.1672 0.8944,0.5641 1.0576,1.0689 0.164,0.5012 0.0791,1.0548 -0.2277,1.483l-4.9148 6.9036 -0.0808 8.4735c-0.0052,0.5291 -0.2609,1.0236 -0.6891,1.3369 -0.4277,0.3098 -0.9782,0.4004 -1.4834,0.2402l-8.083 -2.5416 -8.0825 2.5415c-0.1641,0.0522 -0.3333,0.0767 -0.5009,0.0766z"/></g></g><rect class="fil1" width="173.397" height="173.397"/><text x="0" y="188.397" fill="#000000" font-size="5px" font-weight="bold" font-family="'Helvetica Neue', Helvetica, Arial-Unicode, Arial, Sans-serif">Created by Ehtisham Abid</text><text x="0" y="193.397" fill="#000000" font-size="5px" font-weight="bold" font-family="'Helvetica Neue', Helvetica, Arial-Unicode, Arial, Sans-serif">from the Noun Project</text></svg>